<?xml version="1.0" encoding="UTF-8"?>
<svg class="thumb" width="600" height="200" version="1.1" viewBox="0 200 600 200" xmlns="http://www.w3.org/2000/svg" xmlns:cc="http://creativecommons.org/ns#" xmlns:dc="http://purl.org/dc/elements/1.1/" xmlns:rdf="http://www.w3.org/1999/02/22-rdf-syntax-ns#">
  <metadata>
    <rdf:RDF>
      <cc:Work rdf:about="">
        <dc:format>image/svg+xml</dc:format>
        <dc:type rdf:resource="http://purl.org/dc/dcmitype/StillImage"/>
        <dc:title/>
      </cc:Work>
    </rdf:RDF>
  </metadata>
  <g transform="matrix(.6052 0 0 .6052 -119.87 162.26)">
    <g transform="matrix(.5619 0 0 .5619 313.17 167.48)">
      <svg width="185.99" height="162.36" version="1.1" viewBox="-4.609,3,185.988,162.359">
        <polygon points="88.385 8 0.391 160.36 176.38 160.36" fill="none" style=""/>
      </svg>
    </g>
    <g transform="matrix(.15504 .22029 -.70856 .53121 427.78 122.28)">
      <svg width="186.77" height="186.77" version="1.1" viewBox="-5.013 -5 186.769 186.769">
        <defs>
          <linearGradient id="f" x1="-.013" x2="176.76" y1="88.385" y2="88.385" gradientUnits="userSpaceOnUse">
            <stop stop-color="#d42626" offset="0"/>
            <stop stop-color="#d42626" offset="1"/>
          </linearGradient>
        </defs>
        <rect x="-.013" width="176.77" height="176.77" fill="url(#f)"/>
      </svg>
    </g>
    <g transform="matrix(.4023 0 0 .4023 360.54 183.59)">
      <svg width="187.03" height="186.77" version="1.1" viewBox="-5.131860901213205,-5,187.0337218024264,186.77">
        <defs>
          <linearGradient id="g" y1=".5" y2=".5">
            <stop stop-color="#f5bf16" offset="0"/>
            <stop stop-color="#f5bf16" offset="1"/>
          </linearGradient>
        </defs>
        <circle cx="88.385" cy="88.385" r="88.385" fill="url(#g)" style=""/>
      </svg>
    </g>
    <g transform="matrix(30.51 0 0 30.51 95.069 .4286)">
      <svg width="16.615" height="14.63" version="1.1" viewBox="-4.206579068001324,284.9223784492002,16.61524063600265,14.630333101599433">
        <defs>
          <linearGradient id="a" y1=".5" y2=".5">
            <stop offset="0"/>
            <stop offset="1"/>
          </linearGradient>
        </defs>
        <path d="m0.99497 289.92a0.19841 0.19844 0 1 0 0 0.39684h0.67009c0.14222 0 0.26704 0.0908 0.31154 0.22787l0.89018 2.7428-0.39162 0.27438c-0.13756 0.0962-0.22577 0.24622-0.22578 0.43303v0.0268c0 0.28975 0.23937 0.52862 0.52905 0.52862h4.4287a0.19841 0.19844 0 1 0 0-0.39684h-4.4287c-0.075402 0-0.13226-0.0566-0.13226-0.13178v-0.0268c2.7e-6 -0.0288 0.040676-0.0971 0.056314-0.10799l0.47067-0.32917h3.1546c0.1997 0 0.37791-0.13053 0.43915-0.32036l0.61842-1.9181c0.094569-0.29319-0.13076-0.60561-0.43915-0.60561h-3.8371a0.19841 0.19844 0 1 0 0 0.39684h3.8371c0.049029 0 0.077167 0.0387 0.061483 0.0873l-0.12141 0.37565h-3.2461a0.13227 0.13229 0 1 0 0 0.26456h3.1608l-0.1705 0.52912h-2.4613a0.13227 0.13229 0 1 0 0 0.26456h2.3761l-0.15603 0.48364c-0.00915 0.0283-0.033079 0.0455-0.06148 0.0455h-3.0844l-0.88915-2.7386c-0.096823-0.29822-0.37592-0.50225-0.68921-0.50225z" color="rgb(0, 0, 0)" color-interpolation="srgb" color-interpolation-filters="linearrgb" fill="url(#a)" fill-rule="evenodd" image-rendering="auto" shape-rendering="auto" stroke-dashoffset="0px" stroke-linecap="round" stroke-linejoin="round" stroke-width="1.5px" style="font-variant-caps:normal;font-variant-ligatures:normal;isolation:auto;mix-blend-mode:normal;text-indent:0px;text-transform:none;white-space:normal"/>
      </svg>
    </g>
    <g transform="matrix(30.51 0 0 30.51 156.6 152.45)">
      <svg width="10.794" height="10.794" version="1.1" viewBox="-1.890682,289.88339,10.793568,10.793679999999995">
        <path d="m3.9029 295.28a0.39678 0.39684 0 0 1-0.39678 0.39684 0.39678 0.39684 0 0 1-0.39678-0.39684 0.39678 0.39684 0 0 1 0.39678-0.39684 0.39678 0.39684 0 0 1 0.39678 0.39684z" fill="url(#a)" stroke-linecap="round" stroke-linejoin="round" stroke-width="1px"/>
      </svg>
    </g>
    <g transform="matrix(30.51 0 0 30.51 247.6 152.45)">
      <svg width="10.794" height="10.794" version="1.1" viewBox="0.7545446999999994,289.88339,10.793568,10.793679999999995">
        <path d="m6.5481 295.28a0.39678 0.39684 0 0 1-0.39678 0.39684 0.39678 0.39684 0 0 1-0.39678-0.39684 0.39678 0.39684 0 0 1 0.39678-0.39684 0.39678 0.39684 0 0 1 0.39678 0.39684z" fill="url(#a)" stroke-linecap="round" stroke-linejoin="round" stroke-width="1px"/>
      </svg>
    </g>
    <g transform="matrix(1.0461 0 0 1.0461 475.64 176.67)">
      <svg width="638.2" height="181" overflow="visible" version="1.1">
        <defs>
          <linearGradient id="e" y1=".5" y2=".5">
            <stop stop-color="#ba1414" offset="0"/>
            <stop stop-color="#ba1414" offset="1"/>
          </linearGradient>
        </defs>
        <g transform="translate(0 90.75)">
          <path transform="translate(0)" d="m8.3 0v-70h16.2v56.8h35.1v13.2h-51.3zm81.6-54.6q12.5 0 19.2 5.95t6.7 17.95v30.7h-14.6v-6.7q-4.4 7.5-16.4 7.5-6.2 0-10.75-2.1t-6.95-5.8q-2.4-3.7-2.4-8.4 0-7.5 5.65-11.8t17.45-4.3h12.4q0-5.1-3.1-7.85t-9.3-2.75q-4.3 0-8.45 1.35t-7.05 3.65l-5.6-10.9q4.4-3.1 10.55-4.8t12.65-1.7zm-1.2 44.9q4 0 7.1-1.85t4.4-5.45v-5.5h-10.7q-9.6 0-9.6 6.3 0 3 2.35 4.75t6.45 1.75zm71.7-3.9 4.2 11q-2.3 1.7-5.65 2.55t-7.05 0.85q-9.6 0-14.85-4.9t-5.25-14.4v-22.1h-8.3v-12h8.3v-13.1h15.6v13.1h13.4v12h-13.4v21.9q0 3.4 1.75 5.25t4.95 1.85q3.7 0 6.3-2zm64-13.1q0 0.3-0.3 4.2h-40.7q1.1 5 5.2 7.9t10.2 2.9q4.2 0 7.45-1.25t6.05-3.95l8.3 9q-7.6 8.7-22.2 8.7-9.1 0-16.1-3.55t-10.8-9.85-3.8-14.3q0-7.9 3.75-14.25t10.3-9.9 14.65-3.55q7.9 0 14.3 3.4t10.05 9.75 3.65 14.75zm-27.9-16.1q-5.3 0-8.9 3t-4.4 8.2h26.5q-0.8-5.1-4.4-8.15t-8.8-3.05zm53.2-3.9q2.8-3.9 7.55-5.9t10.95-2v14.4q-2.6-0.2-3.5-0.2-6.7 0-10.5 3.75t-3.8 11.25v25.4h-15.6v-53.8h14.9v7.1zm49.2-7.9q12.5 0 19.2 5.95t6.7 17.95v30.7h-14.6v-6.7q-4.4 7.5-16.4 7.5-6.2 0-10.75-2.1t-6.95-5.8-2.4-8.4q0-7.5 5.65-11.8t17.45-4.3h12.4q0-5.1-3.1-7.85t-9.3-2.75q-4.3 0-8.45 1.35t-7.05 3.65l-5.6-10.9q4.4-3.1 10.55-4.8t12.65-1.7zm-1.2 44.9q4 0 7.1-1.85t4.4-5.45v-5.5h-10.7q-9.6 0-9.6 6.3 0 3 2.35 4.75t6.45 1.75zm41.2 9.7v-74.2h15.6v74.2h-15.6zm54.2 1.2q-8.3 0-16.05-2.25t-12.45-5.85l5.5-12.2q4.5 3.3 10.7 5.3t12.4 2q6.9 0 10.2-2.05t3.3-5.45q0-2.5-1.95-4.15t-5-2.65-8.25-2.2q-8-1.9-13.1-3.8t-8.75-6.1-3.65-11.2q0-6.1 3.3-11.05t9.95-7.85 16.25-2.9q6.7 0 13.1 1.6t11.2 4.6l-5 12.3q-9.7-5.5-19.4-5.5-6.8 0-10.05 2.2t-3.25 5.8 3.75 5.35 11.45 3.45q8 1.9 13.1 3.8t8.75 6 3.65 11.1q0 6-3.35 10.95t-10.05 7.85-16.3 2.9zm70.2-14.8 4.2 11q-2.3 1.7-5.65 2.55t-7.05 0.85q-9.6 0-14.85-4.9t-5.25-14.4v-22.1h-8.3v-12h8.3v-13.1h15.6v13.1h13.4v12h-13.4v21.9q0 3.4 1.75 5.25t4.95 1.85q3.7 0 6.3-2zm36.9 14.4q-8.5 0-15.25-3.55t-10.55-9.85q-3.8-6.3-3.8-14.3t3.8-14.3q3.8-6.3 10.55-9.85t15.25-3.55 15.2 3.55q6.7 3.55 10.5 9.85t3.8 14.3-3.8 14.3-10.5 9.85q-6.7 3.55-15.2 3.55zm0-12.8q6 0 9.85-4.05t3.85-10.85-3.85-10.85q-3.85-4.05-9.85-4.05t-9.9 4.05q-3.9 4.05-3.9 10.85t3.9 10.85q3.9 4.05 9.9 4.05zm54.8-34.7q2.8-3.9 7.55-5.9t10.95-2v14.4q-2.6-0.2-3.5-0.2-6.7 0-10.5 3.75t-3.8 11.25v25.4h-15.6v-53.8h14.9v7.1zm80 20q0 0.3-0.3 4.2h-40.7q1.1 5 5.2 7.9t10.2 2.9q4.2 0 7.45-1.25t6.05-3.95l8.3 9q-7.6 8.7-22.2 8.7-9.1 0-16.1-3.55t-10.8-9.85q-3.8-6.3-3.8-14.3 0-7.9 3.75-14.25t10.3-9.9q6.55-3.55 14.65-3.55 7.9 0 14.3 3.4t10.05 9.75 3.65 14.75zm-27.9-16.1q-5.3 0-8.9 3t-4.4 8.2h26.5q-0.8-5.1-4.4-8.15t-8.8-3.05z" fill="url(#e)" data-dx="0" data-dy="0" data-font="Montserrat" data-font-scale="contain" data-font-size="100" data-font-src="/Content/clientfonts/montserrat-bold.woff" data-href="" data-letterspacing="0" data-offset="0.5" data-side="left" data-text-anchor="middle" data-textpath="LateralStore" data-x="0" data-xmlspace="preserve" data-y="0"/>
        </g>
      </svg>
    </g>
  </g>
</svg>
